<svg xmlns="http://www.w3.org/2000/svg" xmlns:svg="http://www.w3.org/2000/svg" xmlns:xlink="http://www.w3.org/1999/xlink" id="Layer_1" width="180" height="180" x="0" y="0" enable-background="new 0 0 134.333 207.581" version="1.1" viewBox="0 0 180 180" xml:space="preserve"><metadata id="metadata70"/><defs id="defs68"><linearGradient id="linearGradient886"><stop id="stop882" offset="0" stop-color="#79419d" stop-opacity="1"/><stop id="stop884" offset="1" stop-color="#592d92" stop-opacity="1"/></linearGradient><linearGradient id="linearGradient1037" x1="7.037" x2="7.037" y1="0" y2="207.581" gradientTransform="matrix(1.1220984,0,0,0.7729713,167.30635,0.31099219)" gradientUnits="userSpaceOnUse" xlink:href="#SVGID_7_"/><filter id="filter2024" width="1.026" height="1.022" x="-.013" y="-.011" color-interpolation-filters="sRGB"><feGaussianBlur id="feGaussianBlur2026" stdDeviation=".676"/></filter><linearGradient id="linearGradient853" x1="80.227" x2="80.227" y1="0" y2="160.454" gradientTransform="matrix(1.1218167,0,0,1.1218167,1.5482422e-6,9.0306283e-6)" gradientUnits="userSpaceOnUse" xlink:href="#SVGID_7_"/></defs><circle id="path845" cx="90" cy="90" r="90" fill="url(#linearGradient853)" fill-opacity="1" fill-rule="evenodd" stroke="none" stroke-dasharray="none" stroke-dashoffset="0" stroke-linecap="butt" stroke-linejoin="miter" stroke-miterlimit="4" stroke-opacity="1" stroke-width="10.501" opacity="1"/><polygon id="polygon28" fill="#191b28" fill-opacity="1" stroke="none" stroke-dasharray="none" stroke-miterlimit="4" stroke-opacity="1" stroke-width=".5" points="98.581 67.16 98.581 105.146 119.944 117.481 124.959 114.585 124.959 51.93" transform="translate(22.849646,8.8137914)"/><polygon id="polygon21" fill="#191b28" fill-opacity="1" stroke="none" stroke-dasharray="none" stroke-miterlimit="4" stroke-opacity="1" stroke-width=".5" points="9.374 111.538 35.752 96.307 35.752 58.133 13.66 45.377 9.374 47.852" transform="translate(22.849619,8.8128164)"/><path id="path851-7" fill="#0b0b0b" fill-opacity="1" fill-rule="evenodd" stroke="none" stroke-linecap="butt" stroke-linejoin="miter" stroke-opacity="1" stroke-width="1" d="m 89.98339,17.520506 -62.75391,36.261719 0.0137,72.482415 62.78125,36.21485 62.74609,-36.24024 V 53.770506 Z m 0.0332,5.779297 17.66797,10.199219 -5.33985,3.083984 c -0.78,0.448 -1.25976,1.280688 -1.25976,2.179688 v 67.810546 c 0,0.898 0.47976,1.72873 1.25976,2.17773 l 14.04883,8.11328 v 24.67188 l -26.37891,15.22851 -16.61328,-9.59179 4.60938,-2.66211 c 0.778,-0.451 1.25976,-1.28164 1.25976,-2.18165 V 74.518553 c 0,-0.899 -0.48176,-1.730687 -1.25976,-2.179687 L 63.63768,64.040037 V 38.762694 c 0,-0.076 -0.009,-0.15061 -0.0156,-0.224609 z m 22.70117,13.107422 33.58984,19.390625 -28.65429,16.542969 c -0.778,0.45 -1.25781,1.280687 -1.25781,2.179687 v 36.531244 l -10.27539,-5.93164 h -0.002 V 40.215819 Z M 58.60253,41.434569 V 61.133787 L 41.54393,51.284178 Z M 36.50878,54.190428 58.60253,66.946287 V 105.12011 L 32.22362,120.35058 V 56.665037 Z m 111.30077,6.552735 v 62.654287 l -5.01562,2.89649 -21.36329,-12.33399 V 75.973631 Z m -84.17187,9.109374 10.59766,6.121094 v 64.902339 l -5.86914,3.38867 -33.75,-19.48242 27.76172,-16.02929 c 0.778,-0.449 1.25976,-1.28069 1.25976,-2.17969 z m 57.79296,49.917963 16.32813,9.42774 -16.32813,9.42968 z" filter="url(#filter2024)" opacity=".905"/><path id="path851" fill="#fff" fill-rule="evenodd" stroke="none" stroke-linecap="butt" stroke-linejoin="miter" stroke-opacity="1" stroke-width="1" d="m 89.983385,17.520509 -62.753906,36.261719 0.01367,72.482422 62.781249,36.21484 62.746092,-36.24023 V 53.770509 Z m 0.0332,5.779297 17.667965,10.199219 -5.33984,3.083984 c -0.78,0.448 -1.25977,1.280688 -1.25977,2.179688 v 67.810543 c 0,0.898 0.47977,1.72874 1.25977,2.17774 l 14.04883,8.11328 v 24.67187 l -26.378908,15.22851 -16.613281,-9.59179 4.609374,-2.66211 c 0.778001,-0.45099 1.259766,-1.28164 1.259766,-2.18164 V 74.518556 c 0,-0.899 -0.481766,-1.730687 -1.259766,-2.179687 L 63.637682,64.04004 V 38.762697 c 0,-0.076 -0.0086,-0.15061 -0.01563,-0.22461 z m 22.701175,13.107422 33.58984,19.390625 -28.6543,16.542969 c -0.778,0.45 -1.25781,1.280687 -1.25781,2.179687 v 36.531251 l -10.27539,-5.93164 h -0.002 V 40.215822 Z M 58.602525,41.434572 V 61.13379 L 41.543932,51.284181 Z m -22.09375,12.755859 22.09375,12.755859 v 38.17383 L 32.223619,120.35059 V 56.66504 Z m 111.300775,6.552735 v 62.654294 l -5.01562,2.89649 -21.36329,-12.33399 V 75.973634 Z m -84.171868,9.109374 10.597656,6.121094 v 64.902336 l -5.869141,3.38867 -33.75,-19.48241 27.761719,-16.0293 c 0.778,-0.449 1.259766,-1.28069 1.259766,-2.17969 z m 57.792958,49.91797 16.32813,9.42774 -16.32813,9.42967 z"/><g id="g63" stroke="none" stroke-dasharray="none" stroke-miterlimit="4" stroke-opacity="1" stroke-width=".5" transform="translate(22.849691,8.8132714)"><g id="g51" stroke="none" stroke-dasharray="none" stroke-miterlimit="4" stroke-opacity="1" stroke-width=".5"><radialGradient id="SVGID_1_" cx="65.654" cy="81.302" r="81.828" gradientUnits="userSpaceOnUse"><stop id="stop2" offset="0" stop-color="#57A2D9"/><stop id="stop4" offset="1" stop-color="#004A8E"/></radialGradient><radialGradient id="SVGID_2_" cx="65.649" cy="81.3" r="81.835" gradientUnits="userSpaceOnUse" xlink:href="#linearGradient886"><stop id="stop9" offset="0" stop-color="#57A2D9"/><stop id="stop11" offset="1" stop-color="#004A8E"/></radialGradient><radialGradient id="SVGID_3_" cx="65.649" cy="81.3" r="81.833" gradientUnits="userSpaceOnUse"><stop id="stop16" offset="0" stop-color="#D9DADA"/><stop id="stop18" offset="1" stop-color="#ADADAD"/></radialGradient><radialGradient id="SVGID_4_" cx="65.654" cy="81.3" r="81.83" gradientUnits="userSpaceOnUse"><stop id="stop23" offset="0" stop-color="#D9DADA"/><stop id="stop25" offset="1" stop-color="#ADADAD"/></radialGradient><radialGradient id="SVGID_5_" cx="65.65" cy="81.218" r="81.92" gradientUnits="userSpaceOnUse"><stop id="stop30" offset="0" stop-color="#57A2D9"/><stop id="stop32" offset="1" stop-color="#004A8E"/></radialGradient><radialGradient id="SVGID_6_" cx="65.649" cy="81.301" r="81.834" gradientUnits="userSpaceOnUse"><stop id="stop37" offset="0" stop-color="#57A2D9"/><stop id="stop39" offset="1" stop-color="#004A8E"/></radialGradient><radialGradient id="SVGID_7_" cx="65.65" cy="81.3" r="81.833" gradientUnits="userSpaceOnUse"><stop id="stop44" offset="0" stop-color="#79419d" stop-opacity="1"/><stop id="stop46" offset="1" stop-color="#592d92" stop-opacity="1"/></radialGradient></g></g></svg>