<svg xmlns="http://www.w3.org/2000/svg" xmlns:svg="http://www.w3.org/2000/svg" xmlns:xlink="http://www.w3.org/1999/xlink" id="Layer_1" width="160.454" height="160.454" x="0" y="0" enable-background="new 0 0 134.333 207.581" version="1.1" viewBox="0 0 160.454 160.454" xml:space="preserve"><metadata id="metadata70"/><defs id="defs68"><linearGradient id="linearGradient886"><stop id="stop882" offset="0" stop-color="#79419d" stop-opacity="1"/><stop id="stop884" offset="1" stop-color="#592d92" stop-opacity="1"/></linearGradient><linearGradient id="linearGradient1037" x1="7.037" x2="7.037" y1="0" y2="207.581" gradientTransform="matrix(1.1220984,0,0,0.7729713,-1.2500004e-5,1.3824097e-5)" gradientUnits="userSpaceOnUse" xlink:href="#SVGID_7_"/><filter id="filter2024" width="1.026" height="1.022" x="-.013" y="-.011" color-interpolation-filters="sRGB"><feGaussianBlur id="feGaussianBlur2026" stdDeviation=".676"/></filter></defs><rect id="rect880" width="160.454" height="160.454" x="0" y="0" fill="url(#linearGradient1037)" fill-opacity="1" fill-rule="evenodd" stroke="none" stroke-dasharray="none" stroke-dashoffset="0" stroke-linecap="butt" stroke-linejoin="miter" stroke-miterlimit="4" stroke-opacity="1" stroke-width="13.358" opacity="1"/><polygon id="polygon28" fill="#191b28" fill-opacity="1" stroke="none" stroke-dasharray="none" stroke-miterlimit="4" stroke-opacity="1" stroke-width=".5" points="124.959 114.585 124.959 51.93 98.581 67.16 98.581 105.146 119.944 117.481" transform="translate(13.076657,-0.95921318)"/><polygon id="polygon21" fill="#191b28" fill-opacity="1" stroke="none" stroke-dasharray="none" stroke-miterlimit="4" stroke-opacity="1" stroke-width=".5" points="13.66 45.377 9.374 47.852 9.374 111.538 35.752 96.307 35.752 58.133" transform="translate(13.07663,-0.96018818)"/><path id="path851-7" fill="#0b0b0b" fill-opacity="1" fill-rule="evenodd" stroke="none" stroke-linecap="butt" stroke-linejoin="miter" stroke-opacity="1" stroke-width="1" d="m 80.210401,7.7475018 -62.75391,36.2617182 0.0137,72.48242 62.78125,36.21485 62.746089,-36.24024 V 43.997501 Z m 0.0332,5.7792962 17.66797,10.199219 -5.33985,3.083984 c -0.78,0.448 -1.25976,1.280688 -1.25976,2.179688 v 67.810549 c 0,0.898 0.47976,1.72873 1.25976,2.17773 l 14.048829,8.113282 v 24.67188 l -26.378909,15.22851 -16.61328,-9.59179 4.60938,-2.66211 c 0.778,-0.451 1.25976,-1.28164 1.25976,-2.18165 V 64.745548 c 0,-0.899 -0.48176,-1.730687 -1.25976,-2.179687 L 53.864691,54.267032 V 28.989689 c 0,-0.076 -0.009,-0.15061 -0.0156,-0.224609 z m 22.701169,13.107422 33.58984,19.390625 -28.65429,16.542969 c -0.778,0.45 -1.25781,1.280687 -1.25781,2.179687 V 101.27875 L 96.347121,95.347108 h -0.002 V 30.442814 Z m -54.115229,5.027344 v 19.699218 l -17.0586,-9.849609 z m -22.09375,12.755859 22.09375,12.755859 V 95.347108 L 22.450631,110.57758 V 46.892032 Z m 111.300769,6.552735 v 62.654292 l -5.01562,2.89649 -21.36329,-12.33399 V 66.200626 Z m -84.171869,9.109374 10.59766,6.121094 v 64.902344 l -5.86914,3.38867 -33.75,-19.48242 27.76172,-16.029292 c 0.778,-0.449 1.25976,-1.28069 1.25976,-2.17969 z m 57.792959,49.917968 16.32813,9.42774 -16.32813,9.42968 z" filter="url(#filter2024)" opacity=".905"/><path id="path851" fill="#fff" fill-rule="evenodd" stroke="none" stroke-linecap="butt" stroke-linejoin="miter" stroke-opacity="1" stroke-width="1" d="M 80.210396,7.7475048 17.45649,44.009223 17.47016,116.49165 80.251409,152.70649 142.9975,116.46626 V 43.997504 Z m 0.0332,5.7792962 17.667969,10.199219 -5.339844,3.083984 c -0.78,0.448 -1.259766,1.280688 -1.259766,2.179688 v 67.810546 c 0,0.898 0.479766,1.72874 1.259766,2.17774 l 14.048829,8.113282 v 24.67187 l -26.378907,15.22851 -16.613281,-9.59179 4.609374,-2.66211 c 0.778001,-0.45099 1.259766,-1.28164 1.259766,-2.18164 V 64.745551 c 0,-0.899 -0.481766,-1.730687 -1.259766,-2.179687 L 53.864693,54.267035 V 28.989692 c 0,-0.076 -0.0086,-0.15061 -0.01563,-0.22461 z m 22.701174,13.107422 33.58984,19.390625 -28.6543,16.542969 c -0.778,0.45 -1.25781,1.280687 -1.25781,2.179687 V 101.27876 L 96.347115,95.347118 h -0.002 V 30.442817 Z M 48.829536,31.661567 V 51.360785 L 31.770943,41.511176 Z m -22.09375,12.755859 22.09375,12.755859 V 95.347118 L 22.45063,110.57759 V 46.892035 Z m 111.300774,6.552735 v 62.654299 l -5.01562,2.89649 -21.36329,-12.33399 V 66.200629 Z m -84.171867,9.109374 10.597656,6.121094 v 64.902341 l -5.869141,3.38867 -33.75,-19.48241 27.761719,-16.029302 c 0.778,-0.449 1.259766,-1.28069 1.259766,-2.17969 z m 57.792957,49.917975 16.32813,9.42774 -16.32813,9.42967 z"/><g id="g63" stroke="none" stroke-dasharray="none" stroke-miterlimit="4" stroke-opacity="1" stroke-width=".5" transform="translate(13.076702,-0.95973318)"><g id="g51" stroke="none" stroke-dasharray="none" stroke-miterlimit="4" stroke-opacity="1" stroke-width=".5"><radialGradient id="SVGID_1_" cx="65.654" cy="81.302" r="81.828" gradientUnits="userSpaceOnUse"><stop id="stop2" offset="0" stop-color="#57A2D9"/><stop id="stop4" offset="1" stop-color="#004A8E"/></radialGradient><radialGradient id="SVGID_2_" cx="65.649" cy="81.3" r="81.835" gradientUnits="userSpaceOnUse" xlink:href="#linearGradient886"><stop id="stop9" offset="0" stop-color="#57A2D9"/><stop id="stop11" offset="1" stop-color="#004A8E"/></radialGradient><radialGradient id="SVGID_3_" cx="65.649" cy="81.3" r="81.833" gradientUnits="userSpaceOnUse"><stop id="stop16" offset="0" stop-color="#D9DADA"/><stop id="stop18" offset="1" stop-color="#ADADAD"/></radialGradient><radialGradient id="SVGID_4_" cx="65.654" cy="81.3" r="81.83" gradientUnits="userSpaceOnUse"><stop id="stop23" offset="0" stop-color="#D9DADA"/><stop id="stop25" offset="1" stop-color="#ADADAD"/></radialGradient><radialGradient id="SVGID_5_" cx="65.65" cy="81.218" r="81.92" gradientUnits="userSpaceOnUse"><stop id="stop30" offset="0" stop-color="#57A2D9"/><stop id="stop32" offset="1" stop-color="#004A8E"/></radialGradient><radialGradient id="SVGID_6_" cx="65.649" cy="81.301" r="81.834" gradientUnits="userSpaceOnUse"><stop id="stop37" offset="0" stop-color="#57A2D9"/><stop id="stop39" offset="1" stop-color="#004A8E"/></radialGradient><radialGradient id="SVGID_7_" cx="65.65" cy="81.3" r="81.833" gradientUnits="userSpaceOnUse"><stop id="stop44" offset="0" stop-color="#79419d" stop-opacity="1"/><stop id="stop46" offset="1" stop-color="#592d92" stop-opacity="1"/></radialGradient></g></g></svg>