<svg xmlns="http://www.w3.org/2000/svg" xmlns:svg="http://www.w3.org/2000/svg" id="svg2" width="18" height="18" version="1.1"><defs id="defs4"><marker id="DiamondMend" orient="auto" overflow="visible" refX="0" refY="0"><path id="path4062" fill-rule="evenodd" stroke="#000" stroke-width="1pt" marker-start="none" d="M 0,-7.0710768 -7.0710894,0 0,7.0710589 7.0710462,0 0,-7.0710768 z" transform="matrix(0.4,0,0,0.4,-2.6,0)"/></marker><marker id="Tail" orient="auto" overflow="visible" refX="0" refY="0"><g id="g3997" transform="scale(-1.2,-1.2)"><path id="path3999" fill="none" stroke="#000" stroke-linecap="round" stroke-width=".8" marker-end="none" marker-start="none" d="M -3.8048674,-3.9585227 0.54352094,0"/><path id="path4001" fill="none" stroke="#000" stroke-linecap="round" stroke-width=".8" marker-end="none" marker-start="none" d="M -1.2866832,-3.9585227 3.0617053,0"/><path id="path4003" fill="none" stroke="#000" stroke-linecap="round" stroke-width=".8" marker-end="none" marker-start="none" d="M 1.3053582,-3.9585227 5.6537466,0"/><path id="path4005" fill="none" stroke="#000" stroke-linecap="round" stroke-width=".8" marker-end="none" marker-start="none" d="M -3.8048674,4.1775838 0.54352094,0.21974226"/><path id="path4007" fill="none" stroke="#000" stroke-linecap="round" stroke-width=".8" marker-end="none" marker-start="none" d="M -1.2866832,4.1775838 3.0617053,0.21974226"/><path id="path4009" fill="none" stroke="#000" stroke-linecap="round" stroke-width=".8" marker-end="none" marker-start="none" d="M 1.3053582,4.1775838 5.6537466,0.21974226"/></g></marker><marker id="DiamondLend" orient="auto" overflow="visible" refX="0" refY="0"><path id="path4059" fill-rule="evenodd" stroke="#000" stroke-width="1pt" marker-start="none" d="M 0,-7.0710768 -7.0710894,0 0,7.0710589 7.0710462,0 0,-7.0710768 z" transform="matrix(0.8,0,0,0.8,-5.6,0)"/></marker><marker id="TriangleOutL" orient="auto" overflow="visible" refX="0" refY="0"><path id="path4104" fill-rule="evenodd" stroke="#000" stroke-width="1pt" marker-start="none" d="m 5.77,0 -8.65,5 0,-10 8.65,5 z" transform="scale(0.8,0.8)"/></marker><marker id="Arrow2Lend" orient="auto" overflow="visible" refX="0" refY="0"><path id="path3982" fill-rule="evenodd" stroke-linejoin="round" stroke-width=".625" d="M 8.7185878,4.0337352 -2.2072895,0.01601326 8.7185884,-4.0017078 c -1.7454984,2.3720609 -1.7354408,5.6174519 -6e-7,8.035443 z" font-size="12" transform="matrix(-1.1,0,0,-1.1,-1.1,0)"/></marker><marker id="TriangleInL" orient="auto" overflow="visible" refX="0" refY="0"><path id="path4095" fill-rule="evenodd" stroke="#000" stroke-width="1pt" marker-start="none" d="m 5.77,0 -8.65,5 0,-10 8.65,5 z" transform="scale(-0.8,-0.8)"/></marker><marker id="Arrow1Lstart" orient="auto" overflow="visible" refX="0" refY="0"><path id="path3961" fill-rule="evenodd" stroke="#000" stroke-width="1pt" marker-start="none" d="M 0,0 5,-5 -12.5,0 5,5 0,0 z" transform="matrix(0.8,0,0,0.8,10,0)"/></marker><marker id="Arrow2Lstart" orient="auto" overflow="visible" refX="0" refY="0"><path id="path3979" fill-rule="evenodd" stroke-linejoin="round" stroke-width=".625" d="M 8.7185878,4.0337352 -2.2072895,0.01601326 8.7185884,-4.0017078 c -1.7454984,2.3720609 -1.7354408,5.6174519 -6e-7,8.035443 z" font-size="12" transform="matrix(1.1,0,0,1.1,1.1,0)"/></marker></defs><metadata id="metadata7"/><path id="path11659" fill="#000" fill-opacity="1" stroke="#000" stroke-dasharray="none" stroke-linejoin="miter" stroke-miterlimit="4" stroke-width="1.643" d="m 13.181013,13.146224 0,-5.8105616 -5.8105513,5.8105616 5.8105513,0 z"/><path id="path11689" fill="none" stroke="#000" stroke-dasharray="none" stroke-linecap="round" stroke-linejoin="miter" stroke-miterlimit="4" stroke-opacity="1" stroke-width="2.482" d="M 12.761963,12.727174 6.2529128,6.2181329"/></svg>